# AST/ASF file generated using VICON BodyLanguage
# -----------------------------------------------
:version 1.10
:name VICON
:units
  mass 1.0
  length 0.45
  angle deg
:documentation
   .ast/.asf automatically generated from VICON data using
   VICON BodyBuilder and BodyLanguage model FoxedUp or BRILLIANT.MOD
:root
   order TX TY TZ RX RY RZ
   axis XYZ
   position 0 0 0  
   orientation 0 0 0 
:bonedata
  begin
     id 1 
     name lhipjoint
     direction 0.589753 -0.68606 0.426044 
     length 2.54082 
     axis 0 0 0  XYZ
  end
  begin
     id 2 
     name lfemur
     direction 0.34202 -0.939693 0  
     length 7.04539  
     axis 0 0 20  XYZ
    dof rx ry rz
    limits (-160.0 20.0)
           (-70.0 70.0)
           (-60.0 70.0)
  end
  begin
     id 3 
     name ltibia
     direction 0.34202 -0.939693 0   
     length 7.83772   
     axis 0 0 20   XYZ
    dof rx
    limits (-10.0 170.0)
  end
  begin
     id 4 
     name lfoot
     direction 0.0596604 -0.163915 0.984669   
     length 2.39542   
     axis -90 7.62852e-016 20   XYZ
    dof rx rz
    limits (-45.0 90.0)
           (-70.0 20.0)
  end
  begin
     id 5 
     name ltoes
     direction 1.53514e-011 -4.21954e-011 1   
     length 1.2047   
     axis -90 7.62852e-016 20   XYZ
    dof rx
    limits (-90.0 20.0)
  end
  begin
     id 6 
     name rhipjoint
     direction -0.580585 -0.69168 0.429534   
     length 2.52018  
     axis 0 0 0  XYZ 
  end
  begin
     id 7 
     name rfemur
     direction -0.34202 -0.939693 0   
     length 7.0101   
     axis 0 0 -20   XYZ
    dof rx ry rz
    limits (-160.0 20.0)
           (-70.0 70.0)
           (-70.0 60.0)
  end
  begin
     id 8 
     name rtibia
     direction -0.34202 -0.939693 0   
     length 7.70628   
     axis 0 0 -20   XYZ
    dof rx
    limits (-10.0 170.0)
 end
 begin
     id 9 
     name rfoot
     direction -0.0696237 -0.19129 0.979061   
     length 2.52466  
     axis -90 -7.62852e-016 -20   XYZ
    dof rx rz
    limits (-45.0 90.0)
           (-20.0 70.0)
  end
  begin
     id 10 
     name rtoes
     direction -1.53519e-011 -4.21793e-011 1   
     length 1.266   
     axis -90 -7.62852e-016 -20   XYZ
    dof rx
    limits (-90.0 20.0)
  end
  begin
     id 11 
     name lowerback
     direction 0.00381965 0.995707 -0.0924856   
     length 2.20825   
     axis 0 0 0   XYZ
    dof rx ry rz
    limits (-20.0 45.0)
           (-30.0 30.0)
           (-30.0 30.0)
  end
  begin
     id 12 
     name upperback
     direction -0.0139043 0.999634 -0.0231929   
     length 2.21517   
     axis 0 0 0   XYZ
    dof rx ry rz
    limits (-20.0 45.0)
           (-30.0 30.0)
           (-30.0 30.0)
  end
  begin
     id 13 
     name thorax
     direction -0.0143933 0.999691 0.0202892   
     length 2.22911   
     axis 0 0 0   XYZ
    dof rx ry rz
    limits (-20.0 45.0)
           (-30.0 30.0)
           (-30.0 30.0)
  end
  begin
     id 14 
     name lowerneck
     direction -0.0251153 0.981819 0.188153   
     length 1.61782   
     axis 0 0 0   XYZ
    dof rx ry rz
    limits (-20.0 45.0)
           (-30.0 30.0)
           (-30.0 30.0)
  end
  begin
     id 15 
     name upperneck
     direction 0.0563891 0.969357 -0.239095   
     length 1.64526   
     axis 0 0 0   XYZ
    dof rx ry rz
    limits (-20.0 45.0)
           (-30.0 30.0)
           (-30.0 30.0)
  end
  begin
     id 16
     name head
     direction 0.0208328 0.99459 -0.101773  
     length 1.67436  
     axis 0 0 0   XYZ
    dof rx ry rz
    limits (-20.0 45.0)
           (-30.0 30.0)
           (-30.0 30.0)
  end
  begin
     id 17 
     name lclavicle
     direction 0.917689 0.397224 0.00772059  
     length 3.31102  
     axis 0 0 0   XYZ
    dof ry rz
    limits (-20.0 10.0)
           (0.0 20.0)
  end
  begin
     id 18 
     name lhumerus
     direction 1 -4.4896e-011 2.32308e-027   
     length 5.25537   
     axis 180 -30 -90   XYZ
    dof rx ry rz
    limits (-60.0 90.0)
           (-90.0 90.0)
           (-90.0 90.0)
  end
  begin
     id 19
     name lradius
     direction 1 -4.49005e-011 -2.04271e-027   
     length 3.38855   
     axis 180 -30 -90   XYZ
    dof rx
    limits (-10.0 170.0)
  end
  begin
     id 20
     name lwrist
     direction 1 -4.48892e-011 2.56952e-028   
     length 1.69428   
     axis -5.12785e-016 90 90   XYZ
    dof ry
    limits (-180.0 0.0)
 end
  begin
     id 21 
     name lhand
     direction 1 -4.48966e-011 5.13905e-028   
     length 0.614516   
     axis -3.27915e-016 90 90   XYZ
    dof rx rz
    limits (-90.0 90.0)
           (-45.0 45.0)
  end
  begin
     id 22 
     name lfingers
     direction 1 -4.48979e-011 1.02781e-027   
     length 0.495439   
     axis -6.5583e-016 90 90   XYZ
    dof rx
    limits (0.0 90.0)
  end
  begin
     id 23
     name lthumb
     direction 0.707107 -6.35001e-011 0.707107   
     length 0.711354   
     axis -90 45 2.85299e-015   XYZ
    dof rx rz
    limits (-45.0 45.0)
           (-45.0 45.0)
  end
  begin
     id 24 
     name rclavicle
     direction -0.938556 0.342765 -0.0403177   
     length 3.27019  
     axis 0 0 0   XYZ 
    dof ry rz
    limits (-10.0 20.0)
           (-20.0 0.0)
  end
  begin
     id 25 
     name rhumerus
     direction -1 -4.48966e-011 2.52291e-027  
     length 5.38183   
     axis 180 30 90   XYZ
    dof rx ry rz
    limits (-90.0 60.0)
           (-90.0 90.0)
           (-90.0 90.0)
  end
  begin
     id 26 
     name rradius
     direction -1 -4.4896e-011 1.5797e-027   
     length 3.16988   
     axis 180 30 90   XYZ
    dof rx
    limits (-10.0 170.0)
  end
  begin
     id 27 
     name rwrist
     direction -1 -4.48947e-011 2.56952e-028   
     length 1.58494   
     axis -5.12785e-016 -90 -90   XYZ
    dof ry
    limits (-180.0 0.0)
  end
  begin
     id 28
     name rhand
     direction -1 -4.49098e-011 5.13905e-028   
     length 0.637679   
     axis -3.27915e-016 -90 -90   XYZ
    dof rx rz
    limits (-90.0 90.0)
           (-45.0 45.0)
  end
  begin
     id 29
     name rfingers
     direction -1 -4.49026e-011 1.02781e-027   
     length 0.514113   
     axis -6.5583e-016 -90 -90   XYZ
    dof rx
    limits (0.0 90.0)
  end
  begin
     id 30
     name rthumb
     direction -0.707107 -6.3491e-011 0.707107   
     length 0.738167   
     axis -90 -45 -2.85299e-015   XYZ
    dof rx rz
    limits (-45.0 45.0)
           (-45.0 45.0)
  end
:hierarchy
  begin
    root lhipjoint rhipjoint lowerback
    lhipjoint lfemur
    lfemur ltibia
    ltibia lfoot
    lfoot ltoes
    rhipjoint rfemur
    rfemur rtibia
    rtibia rfoot
    rfoot rtoes
    lowerback upperback
    upperback thorax
    thorax lowerneck lclavicle rclavicle
    lowerneck upperneck
    upperneck head
    lclavicle lhumerus
    lhumerus lradius
    lradius lwrist
    lwrist lhand lthumb
    lhand lfingers
    rclavicle rhumerus
    rhumerus rradius
    rradius rwrist
    rwrist rhand rthumb
    rhand rfingers
  end

#!OML:ASF H:\Swim\Project 1\Capture day 1\Session 1\swimmer.ASF
:FULLY-SPECIFIED
:DEGREES
1331
root 5.84469 10.5106 15.4074 84.1345 -1.07533 -1.6124
lowerback 6.15415 0.168805 -0.738888
upperback -6.85974 -0.0514207 -2.04078
thorax -10.7972 -0.0631806 -1.77005
lowerneck -22.8441 -4.99673 -7.90921
upperneck 12.1018 -6.72477 13.2557
head 8.25515 -2.26012 4.8637
rclavicle -2.98177e-015 1.67973e-014
rhumerus 80.4912 -7.82399 -34.2737
rradius 34.5907
rwrist -56.7869
rhand -25.3339 -16.7008
rfingers 7.12502
rthumb 1.18907 -46.6773
lclavicle -2.98177e-015 1.67973e-014
lhumerus 85.049 5.22061 29.6729
lradius 39.6505
lwrist 47.371
lhand -20.2685 -327.916
lfingers 7.12502
lthumb 6.08056 421.977
rfemur -6.13788 -11.2085 -19.6096
rtibia 121.522
rfoot -7.11665 2.15894
rtoes -11.2738
lfemur -6.86783 14.5297 10.8226
ltibia 116.668
lfoot 2.18792 -0.210446
ltoes 14.2597
1332
root 5.8471 10.4902 15.4514 84.9216 -1.07251 -1.64329
lowerback 5.90333 0.056981 -0.477564
upperback -6.77482 -0.180899 -2.15872
thorax -10.5554 -0.151606 -2.01982
lowerneck -22.2128 -4.94328 -8.05114
upperneck 11.6169 -6.65731 13.6014
head 8.00157 -2.23734 5.01041
rclavicle 2.38542e-015 1.98785e-015
rhumerus 80.9042 -8.57741 -32.5328
rradius 32.8983
rwrist -53.2381
rhand -24.6215 -16.896
rfingers 7.12502
rthumb 1.8771 -46.8675
lclavicle 2.38542e-015 1.98785e-015
lhumerus 85.473 6.14197 28.2644
lradius 37.9538
lwrist 44.0894
lhand -19.6664 -328.347
lfingers 7.12502
lthumb 6.66191 421.528
rfemur -6.97823 -11.246 -18.8824
rtibia 120.387
rfoot -7.33737 1.46352
rtoes -11.1075
lfemur -7.45967 14.2926 10.0553
ltibia 115.095
lfoot 1.74479 0.455506
ltoes 14.0457
1333
root 5.84954 10.4717 15.4961 85.6808 -1.06439 -1.66304
lowerback 5.65625 -0.0644545 -0.219444
upperback -6.68768 -0.325009 -2.27428
thorax -10.3169 -0.246136 -2.26407
lowerneck -21.5315 -4.9015 -8.20285
upperneck 11.0796 -6.60281 13.9693
head 7.72642 -2.22391 5.16299
rclavicle 7.55382e-015 -2.15681e-014
rhumerus 81.0869 -9.31673 -30.7569
rradius 31.5227
rwrist -49.763
rhand -23.9328 -16.8774
rfingers 7.12502
rthumb 2.54227 -46.842
lclavicle 7.55382e-015 -2.15681e-014
lhumerus 85.7712 7.03397 26.8582
lradius 36.3591
lwrist 40.5169
lhand -19.0045 -328.811
lfingers 7.12502
lthumb 7.3008 421.043
rfemur -7.76959 -11.2244 -18.1133
rtibia 119.142
rfoot -7.55397 0.751115
rtoes -10.9532
lfemur -8.02346 14.038 9.31858
ltibia 113.462
lfoot 1.32198 1.18377
ltoes 13.9627
1334
root 5.85181 10.4543 15.5411 86.4305 -1.03383 -1.67858
lowerback 5.37688 -0.184329 0.0340154
upperback -6.59906 -0.466856 -2.37527
thorax -10.0599 -0.337668 -2.49128
lowerneck -20.7826 -4.88024 -8.37957
upperneck 10.4766 -6.56935 14.3656
head 7.42467 -2.22535 5.32506
rclavicle 0 -7.7526e-015
rhumerus 81.0688 -10.0319 -28.9965
rradius 30.4208
rwrist -46.3794
rhand -23.2878 -16.6371
rfingers 7.12502
rthumb 3.16514 -46.5934
lclavicle 0 -7.7526e-015
lhumerus 85.984 7.86708 25.5928
lradius 34.8543
lwrist 36.641
lhand -18.276 -329.369
lfingers 7.12502
lthumb 8.00399 420.459
rfemur -8.51958 -11.1474 -17.2915
rtibia 117.804
rfoot -7.7808 0.00457129
rtoes -10.8029
lfemur -8.56561 13.777 8.6483
ltibia 111.781
lfoot 0.913353 1.93723
ltoes 13.9029
1335
root 5.85371 10.4379 15.5859 87.1741 -0.982147 -1.69043
lowerback 5.0535 -0.302385 0.271661
upperback -6.51077 -0.606591 -2.45265
thorax -9.77911 -0.42504 -2.68566
lowerneck -19.9548 -4.86748 -8.56639
upperneck 9.81128 -6.53799 14.7446
head 7.09108 -2.23672 5.48137
rclavicle -1.59028e-015 -5.96354e-015
rhumerus 80.8761 -10.7107 -27.2384
rradius 29.5682
rwrist -43.1494
rhand -22.7402 -16.1652
rfingers 7.12502
rthumb 3.69403 -46.1129
lclavicle -1.59028e-015 -5.96354e-015
lhumerus 86.1271 8.63071 24.5878
lradius 33.4371
lwrist 32.4889
lhand -17.5109 -330.014
lfingers 7.12502
lthumb 8.74231 419.785
rfemur -9.22491 -11.0158 -16.435
rtibia 116.388
rfoot -8.0357 -0.767551
rtoes -10.6531
lfemur -9.08731 13.5094 8.04803
ltibia 110.066
lfoot 0.516341 2.69409
ltoes 13.9077
1336
root 5.85508 10.4222 15.6302 87.9136 -0.915892 -1.70079
lowerback 4.68387 -0.420279 0.494908
upperback -6.42023 -0.746667 -2.50748
thorax -9.47028 -0.509655 -2.84914
lowerneck -19.095 -4.85699 -8.76745
upperneck 9.12972 -6.50065 15.0964
head 6.7474 -2.25191 5.6315
rclavicle 9.54166e-015 3.95581e-014
rhumerus 80.5463 -11.3493 -25.4913
rradius 28.9278
rwrist -40.0647
rhand -22.3045 -15.5003
rfingers 7.12502
rthumb 4.11477 -45.4403
lclavicle 9.54166e-015 3.95581e-014
lhumerus 86.1876 9.33359 23.8266
lradius 32.1363
lwrist 28.1452
lhand -16.8412 -330.817
lfingers 7.12502
lthumb 9.38856 418.954
rfemur -9.88292 -10.8293 -15.5655
rtibia 114.906
rfoot -8.32753 -1.56672
rtoes -10.4712
lfemur -9.58611 13.2365 7.5143
ltibia 108.323
lfoot 0.129944 3.43084
ltoes 13.9822
1337
root 5.85589 10.4072 15.6738 88.66 -0.848242 -1.71078
lowerback 4.26119 -0.534819 0.703471
upperback -6.3319 -0.883824 -2.54851
thorax -9.13425 -0.590382 -2.99179
lowerneck -18.2579 -4.84605 -8.99728
upperneck 8.50695 -6.45912 15.4399
head 6.42803 -2.26605 5.78543
rclavicle -1.59028e-014 -1.54058e-014
rhumerus 80.083 -11.9492 -23.7238
rradius 28.469
rwrist -37.1017
rhand -21.9588 -14.6852
rfingers 7.12502
rthumb 4.44855 -44.6184
lclavicle -1.59028e-014 -1.54058e-014
lhumerus 86.1703 9.98942 23.2774
lradius 30.9853
lwrist 23.8084
lhand -16.332 -331.689
lfingers 7.12502
lthumb 9.87985 418.06
rfemur -10.506 -10.5978 -14.7115
rtibia 113.373
rfoot -8.6576 -2.39036
rtoes -10.2835
lfemur -10.0738 12.9618 7.02634
ltibia 106.561
lfoot -0.246507 4.14017
ltoes 14.1324
1338
root 5.85628 10.3926 15.7162 89.4103 -0.795665 -1.72035
lowerback 3.79763 -0.64646 0.895422
upperback -6.24744 -1.02025 -2.58898
thorax -8.78051 -0.668906 -3.12676
lowerneck -17.5183 -4.8319 -9.19562
upperneck 7.99936 -6.41887 15.7159
head 6.15854 -2.27882 5.91267
rclavicle -3.97569e-015 -6.06293e-015
rhumerus 79.4935 -12.5171 -21.9258
rradius 28.1453
rwrist -34.1744
rhand -21.647 -13.7602
rfingers 7.12502
rthumb 4.74959 -43.687
lclavicle -3.97569e-015 -6.06293e-015
lhumerus 86.0436 10.6219 22.7841
lradius 30.0212
lwrist 19.6928
lhand -16.0718 -332.524
lfingers 7.12502
lthumb 10.1309 417.212
rfemur -11.0896 -10.3252 -13.9067
rtibia 111.796
rfoot -9.01222 -3.21996
rtoes -10.0828
lfemur -10.5475 12.6795 6.55973
ltibia 104.784
lfoot -0.61425 4.8195
ltoes 14.3374
1339
root 5.85646 10.3784 15.7574 90.1704 -0.768918 -1.72916
lowerback 3.29453 -0.755423 1.07999
upperback -6.16559 -1.15658 -2.64312
thorax -8.40924 -0.746767 -3.27456
lowerneck -16.943 -4.81624 -9.31347
upperneck 7.65793 -6.38834 15.8712
head 5.96232 -2.29137 5.98634
rclavicle 1.59028e-014 1.51076e-014
rhumerus 78.7923 -13.0591 -20.1117
rradius 27.8993
rwrist -31.16
rhand -21.3185 -12.7426
rfingers 7.12502
rthumb 5.06685 -42.662
lclavicle 1.59028e-014 1.51076e-014
lhumerus 85.7766 11.2789 22.1514
lradius 29.2685
lwrist 16.0129
lhand -15.9952 -333.292
lfingers 7.12502
lthumb 10.2047 416.44
rfemur -11.6414 -10.0213 -13.1736
rtibia 110.186
rfoot -9.3769 -4.04259
rtoes -9.77806
lfemur -11.0178 12.3877 6.09554
ltibia 103.001
lfoot -0.975027 5.46852
ltoes 14.5596
1340
root 5.85674 10.3646 15.7972 90.9306 -0.757075 -1.73631
lowerback 2.77276 -0.862714 1.27375
upperback -6.08591 -1.29285 -2.70847
thorax -8.03285 -0.825025 -3.44197
lowerneck -16.519 -4.80017 -9.376
upperneck 7.4425 -6.3651 15.9508
head 5.82669 -2.30119 6.02547
rclavicle 6.36111e-015 1.96797e-014
rhumerus 78.0055 -13.5709 -18.3061
rradius 27.675
rwrist -27.9435
rhand -20.9223 -11.6604
rfingers 7.12502
rthumb 5.4494 -41.5704
lclavicle 6.36111e-015 1.96797e-014
lhumerus 85.3393 11.9813 21.2382
lradius 28.7022
lwrist 12.767
lhand -16.025 -333.983
lfingers 7.12502
lthumb 10.1761 415.751
rfemur -12.1512 -9.68531 -12.505
rtibia 108.55
rfoot -9.75833 -4.87023
rtoes -9.37895
lfemur -11.4796 12.0822 5.64605
ltibia 101.216
lfoot -1.32187 6.08796
ltoes 14.6858
1341
root 5.85732 10.3515 15.8354 91.684 -0.748676 -1.74163
lowerback 2.2428 -0.964057 1.48235
upperback -6.0135 -1.42282 -2.78056
thorax -7.66267 -0.900831 -3.62806
lowerneck -16.1841 -4.77825 -9.36734
upperneck 7.27614 -6.3361 15.9249
head 5.71353 -2.30789 6.01807
rclavicle -3.18055e-015 -2.41523e-014
rhumerus 77.1459 -14.0446 -16.536
rradius 27.4343
rwrist -24.4706
rhand -20.4266 -10.5728
rfingers 7.12502
rthumb 5.92799 -40.4699
lclavicle -3.18055e-015 -2.41523e-014
lhumerus 84.7381 12.7156 20.0219
lradius 28.2652
lwrist 9.79915
lhand -16.0338 -334.611
lfingers 7.12502
lthumb 10.1676 415.124
rfemur -12.6145 -9.3158 -11.8892
rtibia 106.898
rfoot -10.1511 -5.69052
rtoes -8.86664
lfemur -11.9262 11.7568 5.23206
ltibia 99.4397
lfoot -1.66872 6.66045
ltoes 14.7625
1342
root 5.85833 10.3391 15.872 92.417 -0.738502 -1.74648
lowerback 1.7205 -1.05282 1.69763
upperback -5.94557 -1.53738 -2.85052
thorax -7.30357 -0.968698 -3.81927
lowerneck -15.8822 -4.75375 -9.34554
upperneck 7.09699 -6.29811 15.8609
head 5.59877 -2.31113 5.99654
rclavicle -1.74931e-014 -1.65985e-014
rhumerus 76.2288 -14.4857 -14.8096
rradius 27.1609
rwrist -20.7629
rhand -19.8164 -9.54992
rfingers 7.12502
rthumb 6.51708 -39.4296
lclavicle -1.74931e-014 -1.65985e-014
lhumerus 84.0102 13.4664 18.573
lradius 27.89
lwrist 6.8896
lhand -15.9115 -335.2
lfingers 7.12502
lthumb 10.2855 414.529
rfemur -13.0228 -8.90765 -11.3209
rtibia 105.235
rfoot -10.5492 -6.5377
rtoes -8.29769
lfemur -12.3463 11.4074 4.8627
ltibia 97.6786
lfoot -2.01939 7.19378
ltoes 14.7906
1343
root 5.85974 10.3274 15.9067 93.1229 -0.727922 -1.75137
lowerback 1.21507 -1.12321 1.90055
upperback -5.89386 -1.62938 -2.9118
thorax -6.97155 -1.02408 -3.99797
lowerneck -15.5216 -4.72107 -9.34892
upperneck 6.85712 -6.24128 15.803
head 5.45426 -2.30943 5.98332
rclavicle -7.95139e-016 4.96962e-015
rhumerus 75.2718 -14.8716 -13.1759
rradius 26.8547
rwrist -16.8903
rhand -19.0751 -8.65534
rfingers 7.12502
rthumb 7.23262 -38.5117
lclavicle -7.95139e-016 4.96962e-015
lhumerus 83.2066 14.1869 17.0275
lradius 27.5218
lwrist 3.87156
lhand -15.5407 -335.763
lfingers 7.12502
lthumb 10.6432 413.948
rfemur -13.3729 -8.46143 -10.8044
rtibia 103.572
rfoot -10.968 -7.39292
rtoes -7.71955
lfemur -12.7347 11.0321 4.53898
ltibia 95.9389
lfoot -2.37024 7.69122
ltoes 14.7502
1344
root 5.86144 10.3162 15.9396 93.7915 -0.705876 -1.75775
lowerback 0.739957 -1.1767 2.09887
upperback -5.85041 -1.6997 -2.96022
thorax -6.6653 -1.06768 -4.16324
lowerneck -15.1044 -4.67971 -9.41565
upperneck 6.53563 -6.16257 15.8136
head 5.27767 -2.29892 6.00572
rclavicle 1.43125e-014 0
rhumerus 74.3322 -15.2236 -11.745
rradius 26.5221
rwrist -12.9893
rhand -18.1575 -7.92712
rfingers 7.12502
rthumb 8.11828 -37.7512
lclavicle 1.43125e-014 0
lhumerus 82.359 14.873 15.4594
lradius 27.1456
lwrist 0.711871
lhand -14.9183 -336.296
lfingers 7.12502
lthumb 11.2436 413.383
rfemur -13.6591 -7.97376 -10.3241
rtibia 101.919
rfoot -11.405 -8.30003
rtoes -7.19588
lfemur -13.0817 10.6323 4.27875
ltibia 94.2239
lfoot -2.7137 8.15859
ltoes 14.6202
1345
root 5.86341 10.3055 15.9703 94.4202 -0.698946 -1.76604
lowerback 0.29109 -1.20921 2.25986
upperback -5.81262 -1.74411 -3.00247
thorax -6.37769 -1.09568 -4.30336
lowerneck -14.6189 -4.62878 -9.57576
upperneck 6.1465 -6.06276 15.9378
head 5.07437 -2.27828 6.08389
rclavicle 1.59028e-014 1.96797e-014
rhumerus 73.4061 -15.5497 -10.5187
rradius 26.1995
rwrist -9.29908
rhand -17.0842 -7.41085
rfingers 7.12502
rthumb 9.15411 -37.1922
lclavicle 1.59028e-014 1.96797e-014
lhumerus 81.5073 15.5075 13.9444
lradius 26.7689
lwrist -2.45344
lhand -14.1197 -336.788
lfingers 7.12502
lthumb 12.0137 412.847
rfemur -13.8817 -7.45224 -9.91893
rtibia 100.285
rfoot -11.8584 -9.27318
rtoes -6.79814
lfemur -13.3876 10.2017 4.04465
ltibia 92.5376
lfoot -3.05066 8.62538
ltoes 14.496
